<svg width="350" height="142" viewBox="0 0 350 142" fill="none" xmlns="http://www.w3.org/2000/svg">
<path d="M62.3134 125.848L58.6814 132.792V137H57.2254V132.792L53.5774 125.848H55.1934L57.9454 131.496L60.6974 125.848H62.3134ZM67.6732 137.144C66.8519 137.144 66.1052 136.957 65.4332 136.584C64.7719 136.211 64.2492 135.683 63.8652 135C63.4919 134.307 63.3052 133.507 63.3052 132.6C63.3052 131.704 63.4972 130.915 63.8812 130.232C64.2759 129.539 64.8092 129.011 65.4812 128.648C66.1532 128.275 66.9052 128.088 67.7372 128.088C68.5692 128.088 69.3212 128.275 69.9932 128.648C70.6652 129.011 71.1932 129.533 71.5772 130.216C71.9719 130.899 72.1692 131.693 72.1692 132.6C72.1692 133.507 71.9665 134.307 71.5612 135C71.1665 135.683 70.6279 136.211 69.9452 136.584C69.2625 136.957 68.5052 137.144 67.6732 137.144ZM67.6732 135.864C68.1959 135.864 68.6865 135.741 69.1452 135.496C69.6039 135.251 69.9719 134.883 70.2492 134.392C70.5372 133.901 70.6812 133.304 70.6812 132.6C70.6812 131.896 70.5425 131.299 70.2652 130.808C69.9879 130.317 69.6252 129.955 69.1772 129.72C68.7292 129.475 68.2439 129.352 67.7212 129.352C67.1879 129.352 66.6972 129.475 66.2492 129.72C65.8119 129.955 65.4599 130.317 65.1932 130.808C64.9265 131.299 64.7932 131.896 64.7932 132.6C64.7932 133.315 64.9212 133.917 65.1772 134.408C65.4439 134.899 65.7959 135.267 66.2332 135.512C66.6705 135.747 67.1505 135.864 67.6732 135.864ZM81.8596 128.232V137H80.4036V135.704C80.1262 136.152 79.7369 136.504 79.2356 136.76C78.7449 137.005 78.2009 137.128 77.6036 137.128C76.9209 137.128 76.3076 136.989 75.7636 136.712C75.2196 136.424 74.7876 135.997 74.4676 135.432C74.1582 134.867 74.0036 134.179 74.0036 133.368V128.232H75.4436V133.176C75.4436 134.04 75.6622 134.707 76.0996 135.176C76.5369 135.635 77.1342 135.864 77.8916 135.864C78.6702 135.864 79.2836 135.624 79.7316 135.144C80.1796 134.664 80.4036 133.965 80.4036 133.048V128.232H81.8596ZM88.0396 132.584C88.0396 131.688 88.2209 130.904 88.5836 130.232C88.9462 129.549 89.4422 129.021 90.0716 128.648C90.7116 128.275 91.4262 128.088 92.2156 128.088C92.8982 128.088 93.5329 128.248 94.1196 128.568C94.7062 128.877 95.1542 129.288 95.4636 129.8V125.16H96.9356V137H95.4636V135.352C95.1756 135.875 94.7489 136.307 94.1836 136.648C93.6182 136.979 92.9569 137.144 92.1996 137.144C91.4209 137.144 90.7116 136.952 90.0716 136.568C89.4422 136.184 88.9462 135.645 88.5836 134.952C88.2209 134.259 88.0396 133.469 88.0396 132.584ZM95.4636 132.6C95.4636 131.939 95.3302 131.363 95.0636 130.872C94.7969 130.381 94.4342 130.008 93.9756 129.752C93.5276 129.485 93.0316 129.352 92.4876 129.352C91.9436 129.352 91.4476 129.48 90.9996 129.736C90.5516 129.992 90.1942 130.365 89.9276 130.856C89.6609 131.347 89.5276 131.923 89.5276 132.584C89.5276 133.256 89.6609 133.843 89.9276 134.344C90.1942 134.835 90.5516 135.213 90.9996 135.48C91.4476 135.736 91.9436 135.864 92.4876 135.864C93.0316 135.864 93.5276 135.736 93.9756 135.48C94.4342 135.213 94.7969 134.835 95.0636 134.344C95.3302 133.843 95.4636 133.261 95.4636 132.6ZM103.22 137.144C102.399 137.144 101.652 136.957 100.98 136.584C100.319 136.211 99.7961 135.683 99.4121 135C99.0387 134.307 98.8521 133.507 98.8521 132.6C98.8521 131.704 99.0441 130.915 99.4281 130.232C99.8227 129.539 100.356 129.011 101.028 128.648C101.7 128.275 102.452 128.088 103.284 128.088C104.116 128.088 104.868 128.275 105.54 128.648C106.212 129.011 106.74 129.533 107.124 130.216C107.519 130.899 107.716 131.693 107.716 132.6C107.716 133.507 107.513 134.307 107.108 135C106.713 135.683 106.175 136.211 105.492 136.584C104.809 136.957 104.052 137.144 103.22 137.144ZM103.22 135.864C103.743 135.864 104.233 135.741 104.692 135.496C105.151 135.251 105.519 134.883 105.796 134.392C106.084 133.901 106.228 133.304 106.228 132.6C106.228 131.896 106.089 131.299 105.812 130.808C105.535 130.317 105.172 129.955 104.724 129.72C104.276 129.475 103.791 129.352 103.268 129.352C102.735 129.352 102.244 129.475 101.796 129.72C101.359 129.955 101.007 130.317 100.74 130.808C100.473 131.299 100.34 131.896 100.34 132.6C100.34 133.315 100.468 133.917 100.724 134.408C100.991 134.899 101.343 135.267 101.78 135.512C102.217 135.747 102.697 135.864 103.22 135.864ZM113.902 128.072C114.969 128.072 115.833 128.397 116.494 129.048C117.156 129.688 117.486 130.616 117.486 131.832V137H116.046V132.04C116.046 131.165 115.828 130.499 115.39 130.04C114.953 129.571 114.356 129.336 113.598 129.336C112.83 129.336 112.217 129.576 111.758 130.056C111.31 130.536 111.086 131.235 111.086 132.152V137H109.63V128.232H111.086V129.48C111.374 129.032 111.764 128.685 112.254 128.44C112.756 128.195 113.305 128.072 113.902 128.072ZM120.089 125.848H121.705L120.169 129.48H119.145L120.089 125.848ZM125.141 129.432V134.6C125.141 135.027 125.231 135.331 125.413 135.512C125.594 135.683 125.909 135.768 126.357 135.768H127.429V137H126.117C125.306 137 124.698 136.813 124.293 136.44C123.887 136.067 123.685 135.453 123.685 134.6V129.432H122.549V128.232H123.685V126.024H125.141V128.232H127.429V129.432H125.141ZM137.811 128.072C138.472 128.072 139.069 128.216 139.603 128.504C140.136 128.781 140.552 129.203 140.851 129.768C141.16 130.333 141.315 131.021 141.315 131.832V137H139.875V132.04C139.875 131.165 139.656 130.499 139.219 130.04C138.781 129.571 138.184 129.336 137.427 129.336C136.659 129.336 136.045 129.576 135.587 130.056C135.139 130.536 134.915 131.235 134.915 132.152V137H133.459V125.16H134.915V129.48C135.203 129.032 135.597 128.685 136.099 128.44C136.611 128.195 137.181 128.072 137.811 128.072ZM143.149 132.584C143.149 131.688 143.33 130.904 143.693 130.232C144.056 129.549 144.552 129.021 145.181 128.648C145.821 128.275 146.53 128.088 147.309 128.088C148.077 128.088 148.744 128.253 149.309 128.584C149.874 128.915 150.296 129.331 150.573 129.832V128.232H152.045V137H150.573V135.368C150.285 135.88 149.853 136.307 149.277 136.648C148.712 136.979 148.05 137.144 147.293 137.144C146.514 137.144 145.81 136.952 145.181 136.568C144.552 136.184 144.056 135.645 143.693 134.952C143.33 134.259 143.149 133.469 143.149 132.584ZM150.573 132.6C150.573 131.939 150.44 131.363 150.173 130.872C149.906 130.381 149.544 130.008 149.085 129.752C148.637 129.485 148.141 129.352 147.597 129.352C147.053 129.352 146.557 129.48 146.109 129.736C145.661 129.992 145.304 130.365 145.037 130.856C144.77 131.347 144.637 131.923 144.637 132.584C144.637 133.256 144.77 133.843 145.037 134.344C145.304 134.835 145.661 135.213 146.109 135.48C146.557 135.736 147.053 135.864 147.597 135.864C148.141 135.864 148.637 135.736 149.085 135.48C149.544 135.213 149.906 134.835 150.173 134.344C150.44 133.843 150.573 133.261 150.573 132.6ZM157.769 135.656L160.489 128.232H162.041L158.601 137H156.905L153.465 128.232H155.033L157.769 135.656ZM171.474 132.28C171.474 132.557 171.458 132.851 171.426 133.16H164.418C164.472 134.024 164.765 134.701 165.298 135.192C165.842 135.672 166.498 135.912 167.266 135.912C167.896 135.912 168.418 135.768 168.834 135.48C169.261 135.181 169.56 134.787 169.73 134.296H171.298C171.064 135.139 170.594 135.827 169.89 136.36C169.186 136.883 168.312 137.144 167.266 137.144C166.434 137.144 165.688 136.957 165.026 136.584C164.376 136.211 163.864 135.683 163.49 135C163.117 134.307 162.93 133.507 162.93 132.6C162.93 131.693 163.112 130.899 163.474 130.216C163.837 129.533 164.344 129.011 164.994 128.648C165.656 128.275 166.413 128.088 167.266 128.088C168.098 128.088 168.834 128.269 169.474 128.632C170.114 128.995 170.605 129.496 170.946 130.136C171.298 130.765 171.474 131.48 171.474 132.28ZM169.97 131.976C169.97 131.421 169.848 130.947 169.602 130.552C169.357 130.147 169.021 129.843 168.594 129.64C168.178 129.427 167.714 129.32 167.202 129.32C166.466 129.32 165.837 129.555 165.314 130.024C164.802 130.493 164.509 131.144 164.434 131.976H169.97ZM177.118 132.584C177.118 131.688 177.299 130.904 177.662 130.232C178.024 129.549 178.52 129.021 179.15 128.648C179.79 128.275 180.499 128.088 181.278 128.088C182.046 128.088 182.712 128.253 183.278 128.584C183.843 128.915 184.264 129.331 184.542 129.832V128.232H186.014V137H184.542V135.368C184.254 135.88 183.822 136.307 183.246 136.648C182.68 136.979 182.019 137.144 181.262 137.144C180.483 137.144 179.779 136.952 179.15 136.568C178.52 136.184 178.024 135.645 177.662 134.952C177.299 134.259 177.118 133.469 177.118 132.584ZM184.542 132.6C184.542 131.939 184.408 131.363 184.142 130.872C183.875 130.381 183.512 130.008 183.054 129.752C182.606 129.485 182.11 129.352 181.566 129.352C181.022 129.352 180.526 129.48 180.078 129.736C179.63 129.992 179.272 130.365 179.006 130.856C178.739 131.347 178.606 131.923 178.606 132.584C178.606 133.256 178.739 133.843 179.006 134.344C179.272 134.835 179.63 135.213 180.078 135.48C180.526 135.736 181.022 135.864 181.566 135.864C182.11 135.864 182.606 135.736 183.054 135.48C183.512 135.213 183.875 134.835 184.142 134.344C184.408 133.843 184.542 133.261 184.542 132.6ZM192.746 128.072C193.813 128.072 194.677 128.397 195.338 129.048C196 129.688 196.33 130.616 196.33 131.832V137H194.89V132.04C194.89 131.165 194.672 130.499 194.234 130.04C193.797 129.571 193.2 129.336 192.442 129.336C191.674 129.336 191.061 129.576 190.602 130.056C190.154 130.536 189.93 131.235 189.93 132.152V137H188.474V128.232H189.93V129.48C190.218 129.032 190.608 128.685 191.098 128.44C191.6 128.195 192.149 128.072 192.746 128.072ZM206.261 128.232L200.981 141.128H199.477L201.205 136.904L197.669 128.232H199.285L202.037 135.336L204.757 128.232H206.261ZM213.446 129.656C213.702 129.155 214.064 128.765 214.534 128.488C215.014 128.211 215.595 128.072 216.278 128.072V129.576H215.894C214.262 129.576 213.446 130.461 213.446 132.232V137H211.99V128.232H213.446V129.656ZM225.959 132.28C225.959 132.557 225.943 132.851 225.911 133.16H218.903C218.956 134.024 219.249 134.701 219.783 135.192C220.327 135.672 220.983 135.912 221.751 135.912C222.38 135.912 222.903 135.768 223.319 135.48C223.745 135.181 224.044 134.787 224.215 134.296H225.783C225.548 135.139 225.079 135.827 224.375 136.36C223.671 136.883 222.796 137.144 221.751 137.144C220.919 137.144 220.172 136.957 219.511 136.584C218.86 136.211 218.348 135.683 217.975 135C217.601 134.307 217.415 133.507 217.415 132.6C217.415 131.693 217.596 130.899 217.959 130.216C218.321 129.533 218.828 129.011 219.479 128.648C220.14 128.275 220.897 128.088 221.751 128.088C222.583 128.088 223.319 128.269 223.959 128.632C224.599 128.995 225.089 129.496 225.431 130.136C225.783 130.765 225.959 131.48 225.959 132.28ZM224.455 131.976C224.455 131.421 224.332 130.947 224.087 130.552C223.841 130.147 223.505 129.843 223.079 129.64C222.663 129.427 222.199 129.32 221.687 129.32C220.951 129.32 220.321 129.555 219.799 130.024C219.287 130.493 218.993 131.144 218.919 131.976H224.455ZM227.336 132.6C227.336 131.693 227.518 130.904 227.88 130.232C228.243 129.549 228.744 129.021 229.384 128.648C230.035 128.275 230.776 128.088 231.608 128.088C232.686 128.088 233.571 128.349 234.264 128.872C234.968 129.395 235.432 130.12 235.656 131.048H234.088C233.939 130.515 233.646 130.093 233.208 129.784C232.782 129.475 232.248 129.32 231.608 129.32C230.776 129.32 230.104 129.608 229.592 130.184C229.08 130.749 228.824 131.555 228.824 132.6C228.824 133.656 229.08 134.472 229.592 135.048C230.104 135.624 230.776 135.912 231.608 135.912C232.248 135.912 232.782 135.763 233.208 135.464C233.635 135.165 233.928 134.739 234.088 134.184H235.656C235.422 135.08 234.952 135.8 234.248 136.344C233.544 136.877 232.664 137.144 231.608 137.144C230.776 137.144 230.035 136.957 229.384 136.584C228.744 136.211 228.243 135.683 227.88 135C227.518 134.317 227.336 133.517 227.336 132.6ZM241.423 137.144C240.602 137.144 239.855 136.957 239.183 136.584C238.522 136.211 237.999 135.683 237.615 135C237.242 134.307 237.055 133.507 237.055 132.6C237.055 131.704 237.247 130.915 237.631 130.232C238.026 129.539 238.559 129.011 239.231 128.648C239.903 128.275 240.655 128.088 241.487 128.088C242.319 128.088 243.071 128.275 243.743 128.648C244.415 129.011 244.943 129.533 245.327 130.216C245.722 130.899 245.919 131.693 245.919 132.6C245.919 133.507 245.717 134.307 245.311 135C244.917 135.683 244.378 136.211 243.695 136.584C243.013 136.957 242.255 137.144 241.423 137.144ZM241.423 135.864C241.946 135.864 242.437 135.741 242.895 135.496C243.354 135.251 243.722 134.883 243.999 134.392C244.287 133.901 244.431 133.304 244.431 132.6C244.431 131.896 244.293 131.299 244.015 130.808C243.738 130.317 243.375 129.955 242.927 129.72C242.479 129.475 241.994 129.352 241.471 129.352C240.938 129.352 240.447 129.475 239.999 129.72C239.562 129.955 239.21 130.317 238.943 130.808C238.677 131.299 238.543 131.896 238.543 132.6C238.543 133.315 238.671 133.917 238.927 134.408C239.194 134.899 239.546 135.267 239.983 135.512C240.421 135.747 240.901 135.864 241.423 135.864ZM249.29 129.656C249.546 129.155 249.908 128.765 250.378 128.488C250.858 128.211 251.439 128.072 252.122 128.072V129.576H251.738C250.106 129.576 249.29 130.461 249.29 132.232V137H247.834V128.232H249.29V129.656ZM253.258 132.584C253.258 131.688 253.44 130.904 253.802 130.232C254.165 129.549 254.661 129.021 255.29 128.648C255.93 128.275 256.645 128.088 257.434 128.088C258.117 128.088 258.752 128.248 259.338 128.568C259.925 128.877 260.373 129.288 260.682 129.8V125.16H262.154V137H260.682V135.352C260.394 135.875 259.968 136.307 259.402 136.648C258.837 136.979 258.176 137.144 257.418 137.144C256.64 137.144 255.93 136.952 255.29 136.568C254.661 136.184 254.165 135.645 253.802 134.952C253.44 134.259 253.258 133.469 253.258 132.584ZM260.682 132.6C260.682 131.939 260.549 131.363 260.282 130.872C260.016 130.381 259.653 130.008 259.194 129.752C258.746 129.485 258.25 129.352 257.706 129.352C257.162 129.352 256.666 129.48 256.218 129.736C255.77 129.992 255.413 130.365 255.146 130.856C254.88 131.347 254.746 131.923 254.746 132.584C254.746 133.256 254.88 133.843 255.146 134.344C255.413 134.835 255.77 135.213 256.218 135.48C256.666 135.736 257.162 135.864 257.706 135.864C258.25 135.864 258.746 135.736 259.194 135.48C259.653 135.213 260.016 134.835 260.282 134.344C260.549 133.843 260.682 133.261 260.682 132.6ZM265.367 126.808C265.089 126.808 264.855 126.712 264.663 126.52C264.471 126.328 264.375 126.093 264.375 125.816C264.375 125.539 264.471 125.304 264.663 125.112C264.855 124.92 265.089 124.824 265.367 124.824C265.633 124.824 265.857 124.92 266.039 125.112C266.231 125.304 266.327 125.539 266.327 125.816C266.327 126.093 266.231 126.328 266.039 126.52C265.857 126.712 265.633 126.808 265.367 126.808ZM266.071 128.232V137H264.615V128.232H266.071ZM272.824 128.072C273.891 128.072 274.755 128.397 275.416 129.048C276.078 129.688 276.408 130.616 276.408 131.832V137H274.968V132.04C274.968 131.165 274.75 130.499 274.312 130.04C273.875 129.571 273.278 129.336 272.52 129.336C271.752 129.336 271.139 129.576 270.68 130.056C270.232 130.536 270.008 131.235 270.008 132.152V137H268.552V128.232H270.008V129.48C270.296 129.032 270.686 128.685 271.176 128.44C271.678 128.195 272.227 128.072 272.824 128.072ZM282.403 128.088C283.16 128.088 283.821 128.253 284.387 128.584C284.963 128.915 285.389 129.331 285.667 129.832V128.232H287.139V137.192C287.139 137.992 286.968 138.701 286.627 139.32C286.285 139.949 285.795 140.44 285.155 140.792C284.525 141.144 283.789 141.32 282.947 141.32C281.795 141.32 280.835 141.048 280.067 140.504C279.299 139.96 278.845 139.219 278.707 138.28H280.147C280.307 138.813 280.637 139.24 281.139 139.56C281.64 139.891 282.243 140.056 282.947 140.056C283.747 140.056 284.397 139.805 284.899 139.304C285.411 138.803 285.667 138.099 285.667 137.192V135.352C285.379 135.864 284.952 136.291 284.387 136.632C283.821 136.973 283.16 137.144 282.403 137.144C281.624 137.144 280.915 136.952 280.275 136.568C279.645 136.184 279.149 135.645 278.787 134.952C278.424 134.259 278.243 133.469 278.243 132.584C278.243 131.688 278.424 130.904 278.787 130.232C279.149 129.549 279.645 129.021 280.275 128.648C280.915 128.275 281.624 128.088 282.403 128.088ZM285.667 132.6C285.667 131.939 285.533 131.363 285.267 130.872C285 130.381 284.637 130.008 284.179 129.752C283.731 129.485 283.235 129.352 282.691 129.352C282.147 129.352 281.651 129.48 281.203 129.736C280.755 129.992 280.397 130.365 280.131 130.856C279.864 131.347 279.731 131.923 279.731 132.584C279.731 133.256 279.864 133.843 280.131 134.344C280.397 134.835 280.755 135.213 281.203 135.48C281.651 135.736 282.147 135.864 282.691 135.864C283.235 135.864 283.731 135.736 284.179 135.48C284.637 135.213 285 134.835 285.267 134.344C285.533 133.843 285.667 133.261 285.667 132.6ZM292.703 137.144C292.031 137.144 291.429 137.032 290.895 136.808C290.362 136.573 289.941 136.253 289.631 135.848C289.322 135.432 289.151 134.957 289.119 134.424H290.623C290.666 134.861 290.869 135.219 291.231 135.496C291.605 135.773 292.09 135.912 292.687 135.912C293.242 135.912 293.679 135.789 293.999 135.544C294.319 135.299 294.479 134.989 294.479 134.616C294.479 134.232 294.309 133.949 293.967 133.768C293.626 133.576 293.098 133.389 292.383 133.208C291.733 133.037 291.199 132.867 290.783 132.696C290.378 132.515 290.026 132.253 289.727 131.912C289.439 131.56 289.295 131.101 289.295 130.536C289.295 130.088 289.429 129.677 289.695 129.304C289.962 128.931 290.341 128.637 290.831 128.424C291.322 128.2 291.882 128.088 292.511 128.088C293.482 128.088 294.266 128.333 294.863 128.824C295.461 129.315 295.781 129.987 295.823 130.84H294.367C294.335 130.381 294.149 130.013 293.807 129.736C293.477 129.459 293.029 129.32 292.463 129.32C291.941 129.32 291.525 129.432 291.215 129.656C290.906 129.88 290.751 130.173 290.751 130.536C290.751 130.824 290.842 131.064 291.023 131.256C291.215 131.437 291.45 131.587 291.727 131.704C292.015 131.811 292.41 131.933 292.911 132.072C293.541 132.243 294.053 132.413 294.447 132.584C294.842 132.744 295.178 132.989 295.455 133.32C295.743 133.651 295.893 134.083 295.903 134.616C295.903 135.096 295.77 135.528 295.503 135.912C295.237 136.296 294.858 136.6 294.367 136.824C293.887 137.037 293.333 137.144 292.703 137.144Z" fill="white" fill-opacity="0.6"/>
<g filter="url(#filter0_i_6_765)">
<path d="M188.286 40C188.286 17.9431 206.165 0 228.143 0C250.121 0 268 17.9431 268 40C268 62.0569 250.121 80 228.143 80H121.857C99.879 80 82 62.0569 82 40C82 17.9431 99.879 0 121.857 0C143.835 0 161.714 17.9431 161.714 40C161.714 44.6969 160.756 49.1422 159.267 53.3333H190.733C189.244 49.1422 188.286 44.6969 188.286 40Z" fill="url(#paint0_linear_6_765)"/>
</g>
<defs>
<filter id="filter0_i_6_765" x="82" y="0" width="186" height="90" filterUnits="userSpaceOnUse" color-interpolation-filters="sRGB">
<feFlood flood-opacity="0" result="BackgroundImageFix"/>
<feBlend mode="normal" in="SourceGraphic" in2="BackgroundImageFix" result="shape"/>
<feColorMatrix in="SourceAlpha" type="matrix" values="0 0 0 0 0 0 0 0 0 0 0 0 0 0 0 0 0 0 127 0" result="hardAlpha"/>
<feOffset dy="10"/>
<feGaussianBlur stdDeviation="7"/>
<feComposite in2="hardAlpha" operator="arithmetic" k2="-1" k3="1"/>
<feColorMatrix type="matrix" values="0 0 0 0 0.580392 0 0 0 0 0 0 0 0 0 0.0117647 0 0 0 1 0"/>
<feBlend mode="normal" in2="shape" result="effect1_innerShadow_6_765"/>
</filter>
<linearGradient id="paint0_linear_6_765" x1="67.8286" y1="102.426" x2="67.8286" y2="0" gradientUnits="userSpaceOnUse">
<stop stop-color="#A80017"/>
<stop offset="1" stop-color="#E4562E"/>
</linearGradient>
</defs>
</svg>
