<svg width="144" height="99" viewBox="0 0 144 99" fill="none" xmlns="http://www.w3.org/2000/svg">
<g filter="url(#filter0_i_3_37)">
<rect width="143.333" height="99" fill="url(#paint0_linear_3_37)"/>
<path fill-rule="evenodd" clip-rule="evenodd" d="M65.3349 33.6676C76.8329 22.1709 82.0981 23.8057 83.7947 25.0177C84.0689 25.1734 89.8135 29.0109 86.4432 33.1244C78.0342 43.3348 79.2231 30.4086 70.6478 38.9824C62.0743 47.558 75 46.3691 64.7918 54.7766C60.6767 58.147 56.8393 52.4022 56.6854 52.1298C55.4717 50.433 53.837 45.166 65.3349 33.6676Z" stroke="white" stroke-width="2" stroke-linecap="round" stroke-linejoin="round"/>
<path d="M38.1011 72.51C38.1011 71.83 38.2578 71.22 38.5711 70.68C38.8911 70.14 39.3211 69.72 39.8611 69.42C40.4078 69.1133 41.0044 68.96 41.6511 68.96C42.3911 68.96 43.0478 69.1433 43.6211 69.51C44.2011 69.87 44.6211 70.3833 44.8811 71.05H43.5111C43.3311 70.6833 43.0811 70.41 42.7611 70.23C42.4411 70.05 42.0711 69.96 41.6511 69.96C41.1911 69.96 40.7811 70.0633 40.4211 70.27C40.0611 70.4767 39.7778 70.7733 39.5711 71.16C39.3711 71.5467 39.2711 71.9967 39.2711 72.51C39.2711 73.0233 39.3711 73.4733 39.5711 73.86C39.7778 74.2467 40.0611 74.5467 40.4211 74.76C40.7811 74.9667 41.1911 75.07 41.6511 75.07C42.0711 75.07 42.4411 74.98 42.7611 74.8C43.0811 74.62 43.3311 74.3467 43.5111 73.98H44.8811C44.6211 74.6467 44.2011 75.16 43.6211 75.52C43.0478 75.88 42.3911 76.06 41.6511 76.06C40.9978 76.06 40.4011 75.91 39.8611 75.61C39.3211 75.3033 38.8911 74.88 38.5711 74.34C38.2578 73.8 38.1011 73.19 38.1011 72.51ZM45.8355 73.22C45.8355 72.6667 45.9488 72.1767 46.1755 71.75C46.4088 71.3233 46.7222 70.9933 47.1155 70.76C47.5155 70.52 47.9555 70.4 48.4355 70.4C48.8688 70.4 49.2455 70.4867 49.5655 70.66C49.8922 70.8267 50.1522 71.0367 50.3455 71.29V70.49H51.4955V76H50.3455V75.18C50.1522 75.44 49.8888 75.6567 49.5555 75.83C49.2222 76.0033 48.8422 76.09 48.4155 76.09C47.9422 76.09 47.5088 75.97 47.1155 75.73C46.7222 75.4833 46.4088 75.1433 46.1755 74.71C45.9488 74.27 45.8355 73.7733 45.8355 73.22ZM50.3455 73.24C50.3455 72.86 50.2655 72.53 50.1055 72.25C49.9522 71.97 49.7488 71.7567 49.4955 71.61C49.2422 71.4633 48.9688 71.39 48.6755 71.39C48.3822 71.39 48.1088 71.4633 47.8555 71.61C47.6022 71.75 47.3955 71.96 47.2355 72.24C47.0822 72.5133 47.0055 72.84 47.0055 73.22C47.0055 73.6 47.0822 73.9333 47.2355 74.22C47.3955 74.5067 47.6022 74.7267 47.8555 74.88C48.1155 75.0267 48.3888 75.1 48.6755 75.1C48.9688 75.1 49.2422 75.0267 49.4955 74.88C49.7488 74.7333 49.9522 74.52 50.1055 74.24C50.2655 73.9533 50.3455 73.62 50.3455 73.24ZM54.1328 68.6V76H52.9928V68.6H54.1328ZM56.7695 68.6V76H55.6295V68.6H56.7695ZM64.4739 76L62.8739 73.22H62.0039V76H60.8639V69.05H63.2639C63.7973 69.05 64.2473 69.1433 64.6139 69.33C64.9873 69.5167 65.2639 69.7667 65.4439 70.08C65.6306 70.3933 65.7239 70.7433 65.7239 71.13C65.7239 71.5833 65.5906 71.9967 65.3239 72.37C65.0639 72.7367 64.6606 72.9867 64.1139 73.12L65.8339 76H64.4739ZM62.0039 72.31H63.2639C63.6906 72.31 64.0106 72.2033 64.2239 71.99C64.4439 71.7767 64.5539 71.49 64.5539 71.13C64.5539 70.77 64.4473 70.49 64.2339 70.29C64.0206 70.0833 63.6973 69.98 63.2639 69.98H62.0039V72.31ZM72.2323 73.11C72.2323 73.3167 72.2189 73.5033 72.1923 73.67H67.9823C68.0156 74.11 68.1789 74.4633 68.4723 74.73C68.7656 74.9967 69.1256 75.13 69.5523 75.13C70.1656 75.13 70.5989 74.8733 70.8523 74.36H72.0823C71.9156 74.8667 71.6123 75.2833 71.1723 75.61C70.7389 75.93 70.1989 76.09 69.5523 76.09C69.0256 76.09 68.5523 75.9733 68.1323 75.74C67.7189 75.5 67.3923 75.1667 67.1523 74.74C66.9189 74.3067 66.8023 73.8067 66.8023 73.24C66.8023 72.6733 66.9156 72.1767 67.1423 71.75C67.3756 71.3167 67.6989 70.9833 68.1123 70.75C68.5323 70.5167 69.0123 70.4 69.5523 70.4C70.0723 70.4 70.5356 70.5133 70.9423 70.74C71.3489 70.9667 71.6656 71.2867 71.8923 71.7C72.1189 72.1067 72.2323 72.5767 72.2323 73.11ZM71.0423 72.75C71.0356 72.33 70.8856 71.9933 70.5923 71.74C70.2989 71.4867 69.9356 71.36 69.5023 71.36C69.1089 71.36 68.7723 71.4867 68.4923 71.74C68.2123 71.9867 68.0456 72.3233 67.9923 72.75H71.0423ZM72.9742 73.24C72.9742 72.6733 73.0875 72.1767 73.3142 71.75C73.5475 71.3167 73.8675 70.9833 74.2742 70.75C74.6808 70.5167 75.1475 70.4 75.6742 70.4C76.3408 70.4 76.8908 70.56 77.3242 70.88C77.7642 71.1933 78.0608 71.6433 78.2142 72.23H76.9842C76.8842 71.9567 76.7242 71.7433 76.5042 71.59C76.2842 71.4367 76.0075 71.36 75.6742 71.36C75.2075 71.36 74.8342 71.5267 74.5542 71.86C74.2808 72.1867 74.1442 72.6467 74.1442 73.24C74.1442 73.8333 74.2808 74.2967 74.5542 74.63C74.8342 74.9633 75.2075 75.13 75.6742 75.13C76.3342 75.13 76.7708 74.84 76.9842 74.26H78.2142C78.0542 74.82 77.7542 75.2667 77.3142 75.6C76.8742 75.9267 76.3275 76.09 75.6742 76.09C75.1475 76.09 74.6808 75.9733 74.2742 75.74C73.8675 75.5 73.5475 75.1667 73.3142 74.74C73.0875 74.3067 72.9742 73.8067 72.9742 73.24ZM81.7403 76.09C81.2203 76.09 80.7503 75.9733 80.3303 75.74C79.9103 75.5 79.5803 75.1667 79.3403 74.74C79.1003 74.3067 78.9803 73.8067 78.9803 73.24C78.9803 72.68 79.1036 72.1833 79.3503 71.75C79.5969 71.3167 79.9336 70.9833 80.3603 70.75C80.7869 70.5167 81.2636 70.4 81.7903 70.4C82.3169 70.4 82.7936 70.5167 83.2203 70.75C83.6469 70.9833 83.9836 71.3167 84.2303 71.75C84.4769 72.1833 84.6003 72.68 84.6003 73.24C84.6003 73.8 84.4736 74.2967 84.2203 74.73C83.9669 75.1633 83.6203 75.5 83.1803 75.74C82.7469 75.9733 82.2669 76.09 81.7403 76.09ZM81.7403 75.1C82.0336 75.1 82.3069 75.03 82.5603 74.89C82.8203 74.75 83.0303 74.54 83.1903 74.26C83.3503 73.98 83.4303 73.64 83.4303 73.24C83.4303 72.84 83.3536 72.5033 83.2003 72.23C83.0469 71.95 82.8436 71.74 82.5903 71.6C82.3369 71.46 82.0636 71.39 81.7703 71.39C81.4769 71.39 81.2036 71.46 80.9503 71.6C80.7036 71.74 80.5069 71.95 80.3603 72.23C80.2136 72.5033 80.1403 72.84 80.1403 73.24C80.1403 73.8333 80.2903 74.2933 80.5903 74.62C80.8969 74.94 81.2803 75.1 81.7403 75.1ZM86.8672 71.29C87.0339 71.01 87.2539 70.7933 87.5272 70.64C87.8072 70.48 88.1372 70.4 88.5172 70.4V71.58H88.2272C87.7805 71.58 87.4405 71.6933 87.2072 71.92C86.9805 72.1467 86.8672 72.54 86.8672 73.1V76H85.7272V70.49H86.8672V71.29ZM89.1851 73.22C89.1851 72.6667 89.2984 72.1767 89.5251 71.75C89.7584 71.3233 90.0718 70.9933 90.4651 70.76C90.8651 70.52 91.3084 70.4 91.7951 70.4C92.1551 70.4 92.5084 70.48 92.8551 70.64C93.2084 70.7933 93.4884 71 93.6951 71.26V68.6H94.8451V76H93.6951V75.17C93.5084 75.4367 93.2484 75.6567 92.9151 75.83C92.5884 76.0033 92.2118 76.09 91.7851 76.09C91.3051 76.09 90.8651 75.97 90.4651 75.73C90.0718 75.4833 89.7584 75.1433 89.5251 74.71C89.2984 74.27 89.1851 73.7733 89.1851 73.22ZM93.6951 73.24C93.6951 72.86 93.6151 72.53 93.4551 72.25C93.3018 71.97 93.0984 71.7567 92.8451 71.61C92.5918 71.4633 92.3184 71.39 92.0251 71.39C91.7318 71.39 91.4584 71.4633 91.2051 71.61C90.9518 71.75 90.7451 71.96 90.5851 72.24C90.4318 72.5133 90.3551 72.84 90.3551 73.22C90.3551 73.6 90.4318 73.9333 90.5851 74.22C90.7451 74.5067 90.9518 74.7267 91.2051 74.88C91.4651 75.0267 91.7384 75.1 92.0251 75.1C92.3184 75.1 92.5918 75.0267 92.8451 74.88C93.0984 74.7333 93.3018 74.52 93.4551 74.24C93.6151 73.9533 93.6951 73.62 93.6951 73.24ZM101.392 73.11C101.392 73.3167 101.379 73.5033 101.352 73.67H97.1424C97.1758 74.11 97.3391 74.4633 97.6324 74.73C97.9258 74.9967 98.2858 75.13 98.7124 75.13C99.3258 75.13 99.7591 74.8733 100.012 74.36H101.242C101.076 74.8667 100.772 75.2833 100.332 75.61C99.8991 75.93 99.3591 76.09 98.7124 76.09C98.1858 76.09 97.7124 75.9733 97.2924 75.74C96.8791 75.5 96.5524 75.1667 96.3124 74.74C96.0791 74.3067 95.9624 73.8067 95.9624 73.24C95.9624 72.6733 96.0758 72.1767 96.3024 71.75C96.5358 71.3167 96.8591 70.9833 97.2724 70.75C97.6924 70.5167 98.1724 70.4 98.7124 70.4C99.2324 70.4 99.6958 70.5133 100.102 70.74C100.509 70.9667 100.826 71.2867 101.052 71.7C101.279 72.1067 101.392 72.5767 101.392 73.11ZM100.202 72.75C100.196 72.33 100.046 71.9933 99.7524 71.74C99.4591 71.4867 99.0958 71.36 98.6624 71.36C98.2691 71.36 97.9324 71.4867 97.6524 71.74C97.3724 71.9867 97.2058 72.3233 97.1524 72.75H100.202ZM103.654 71.29C103.821 71.01 104.041 70.7933 104.314 70.64C104.594 70.48 104.924 70.4 105.304 70.4V71.58H105.014C104.568 71.58 104.228 71.6933 103.994 71.92C103.768 72.1467 103.654 72.54 103.654 73.1V76H102.514V70.49H103.654V71.29Z" fill="white"/>
</g>
<defs>
<filter id="filter0_i_3_37" x="0" y="0" width="143.333" height="104" filterUnits="userSpaceOnUse" color-interpolation-filters="sRGB">
<feFlood flood-opacity="0" result="BackgroundImageFix"/>
<feBlend mode="normal" in="SourceGraphic" in2="BackgroundImageFix" result="shape"/>
<feColorMatrix in="SourceAlpha" type="matrix" values="0 0 0 0 0 0 0 0 0 0 0 0 0 0 0 0 0 0 127 0" result="hardAlpha"/>
<feOffset dy="5"/>
<feGaussianBlur stdDeviation="7"/>
<feComposite in2="hardAlpha" operator="arithmetic" k2="-1" k3="1"/>
<feColorMatrix type="matrix" values="0 0 0 0 0.580392 0 0 0 0 0 0 0 0 0 0.0117647 0 0 0 1 0"/>
<feBlend mode="normal" in2="shape" result="effect1_innerShadow_3_37"/>
</filter>
<linearGradient id="paint0_linear_3_37" x1="-10.9206" y1="126.752" x2="-10.9206" y2="0" gradientUnits="userSpaceOnUse">
<stop stop-color="#A80017"/>
<stop offset="1" stop-color="#E4562E"/>
</linearGradient>
</defs>
</svg>
