<svg width="423" height="108" viewBox="0 0 423 108" fill="none" xmlns="http://www.w3.org/2000/svg">
<g opacity="0.6">
<path d="M107.852 108C107.305 108 106.862 107.554 106.862 107.004V0.996368C106.862 0.445979 107.305 0 107.852 0C108.399 0 108.842 0.445979 108.842 0.996368V107.002C108.842 107.553 108.399 107.999 107.852 107.999V108Z" fill="url(#paint0_linear_6_61)"/>
<path d="M99.7485 102.854C99.2015 102.854 98.7583 102.408 98.7583 101.858V6.14227C98.7583 5.59188 99.2015 5.1459 99.7485 5.1459C100.295 5.1459 100.739 5.59188 100.739 6.14227V101.856C100.739 102.407 100.295 102.853 99.7485 102.853V102.854Z" fill="url(#paint1_linear_6_61)"/>
<path d="M91.6447 83.8142C91.0977 83.8142 90.6545 83.3682 90.6545 82.8179V25.1822C90.6545 24.6318 91.0977 24.1858 91.6447 24.1858C92.1917 24.1858 92.6349 24.6318 92.6349 25.1822V82.8164C92.6349 83.3667 92.1917 83.8127 91.6447 83.8127V83.8142Z" fill="url(#paint2_linear_6_61)"/>
<path d="M83.5409 73.0078C82.9939 73.0078 82.5507 72.5618 82.5507 72.0114V35.99C82.5507 35.4397 82.9939 34.9937 83.5409 34.9937C84.0879 34.9937 84.5311 35.4397 84.5311 35.99V72.0114C84.5311 72.5618 84.0879 73.0078 83.5409 73.0078Z" fill="url(#paint3_linear_6_61)"/>
<path d="M75.4356 63.7451C74.8886 63.7451 74.4454 63.2992 74.4454 62.7488V45.2527C74.4454 44.7023 74.8886 44.2563 75.4356 44.2563C75.9826 44.2563 76.4258 44.7023 76.4258 45.2527V62.7488C76.4258 63.2992 75.9826 63.7451 75.4356 63.7451Z" fill="url(#paint4_linear_6_61)"/>
<path d="M67.3319 59.4435C66.7849 59.4435 66.3417 58.9975 66.3417 58.4471V49.5529C66.3417 49.0025 66.7849 48.5565 67.3319 48.5565C67.8788 48.5565 68.322 49.0025 68.322 49.5529V58.4471C68.322 58.9975 67.8788 59.4435 67.3319 59.4435Z" fill="url(#paint5_linear_6_61)"/>
<path d="M59.2281 74.4024C58.6811 74.4024 58.2379 73.9564 58.2379 73.406V34.5954C58.2379 34.045 58.6811 33.5991 59.2281 33.5991C59.775 33.5991 60.2183 34.045 60.2183 34.5954V73.4045C60.2183 73.9549 59.775 74.4009 59.2281 74.4009V74.4024Z" fill="url(#paint6_linear_6_61)"/>
<path d="M51.1243 80.4656C50.5773 80.4656 50.1341 80.0197 50.1341 79.4693V28.5307C50.1341 27.9803 50.5773 27.5344 51.1243 27.5344C51.6712 27.5344 52.1145 27.9803 52.1145 28.5307V79.4678C52.1145 80.0182 51.6712 80.4642 51.1243 80.4642V80.4656Z" fill="url(#paint7_linear_6_61)"/>
<path d="M43.0205 93.402C42.4735 93.402 42.0303 92.956 42.0303 92.4057V15.5944C42.0303 15.044 42.4735 14.598 43.0205 14.598C43.5675 14.598 44.0107 15.044 44.0107 15.5944V92.4057C44.0107 92.956 43.5675 93.402 43.0205 93.402Z" fill="url(#paint8_linear_6_61)"/>
<path d="M34.9167 94.2104C34.3698 94.2104 33.9265 93.7645 33.9265 93.2141V14.7859C33.9265 14.2355 34.3698 13.7896 34.9167 13.7896C35.4637 13.7896 35.9069 14.2355 35.9069 14.7859V93.2141C35.9069 93.7645 35.4637 94.2104 34.9167 94.2104Z" fill="url(#paint9_linear_6_61)"/>
<path d="M26.8114 73.1883C26.2645 73.1883 25.8213 72.7423 25.8213 72.1919V35.8081C25.8213 35.2577 26.2645 34.8117 26.8114 34.8117C27.3584 34.8117 27.8016 35.2577 27.8016 35.8081V72.1919C27.8016 72.7423 27.3584 73.1883 26.8114 73.1883Z" fill="url(#paint10_linear_6_61)"/>
<path d="M18.7077 68.7419C18.1607 68.7419 17.7175 68.2959 17.7175 67.7456V40.256C17.7175 39.7056 18.1607 39.2596 18.7077 39.2596C19.2547 39.2596 19.6979 39.7056 19.6979 40.256V67.7456C19.6979 68.2959 19.2547 68.7419 18.7077 68.7419Z" fill="url(#paint11_linear_6_61)"/>
<path d="M10.6039 60.6561C10.0569 60.6561 9.61371 60.2101 9.61371 59.6598V48.3402C9.61371 47.7898 10.0569 47.3439 10.6039 47.3439C11.1509 47.3439 11.5941 47.7898 11.5941 48.3402V59.6598C11.5941 60.2101 11.1509 60.6561 10.6039 60.6561Z" fill="url(#paint12_linear_6_61)"/>
<path d="M308.124 108C308.671 108 309.114 107.554 309.114 107.004V0.996368C309.114 0.445979 308.671 0 308.124 0C307.577 0 307.134 0.445979 307.134 0.996368V107.002C307.134 107.553 307.577 107.999 308.124 107.999V108Z" fill="url(#paint13_linear_6_61)"/>
<path d="M316.228 102.854C316.775 102.854 317.218 102.408 317.218 101.858V6.14227C317.218 5.59188 316.775 5.1459 316.228 5.1459C315.681 5.1459 315.238 5.59188 315.238 6.14227V101.856C315.238 102.407 315.681 102.853 316.228 102.853V102.854Z" fill="url(#paint14_linear_6_61)"/>
<path d="M324.332 83.8142C324.879 83.8142 325.322 83.3682 325.322 82.8179V25.1822C325.322 24.6318 324.879 24.1858 324.332 24.1858C323.785 24.1858 323.341 24.6318 323.341 25.1822V82.8164C323.341 83.3667 323.785 83.8127 324.332 83.8127V83.8142Z" fill="url(#paint15_linear_6_61)"/>
<path d="M332.435 73.0078C332.982 73.0078 333.426 72.5618 333.426 72.0114V35.99C333.426 35.4397 332.982 34.9937 332.435 34.9937C331.888 34.9937 331.445 35.4397 331.445 35.99V72.0114C331.445 72.5618 331.888 73.0078 332.435 73.0078Z" fill="url(#paint16_linear_6_61)"/>
<path d="M340.539 63.7451C341.086 63.7451 341.529 63.2992 341.529 62.7488V45.2527C341.529 44.7023 341.086 44.2563 340.539 44.2563C339.992 44.2563 339.549 44.7023 339.549 45.2527V62.7488C339.549 63.2992 339.992 63.7451 340.539 63.7451Z" fill="url(#paint17_linear_6_61)"/>
<path d="M348.643 59.4435C349.19 59.4435 349.633 58.9975 349.633 58.4471V49.5529C349.633 49.0025 349.19 48.5565 348.643 48.5565C348.096 48.5565 347.653 49.0025 347.653 49.5529V58.4471C347.653 58.9975 348.096 59.4435 348.643 59.4435Z" fill="url(#paint18_linear_6_61)"/>
<path d="M356.748 74.4024C357.295 74.4024 357.738 73.9564 357.738 73.406V34.5954C357.738 34.045 357.295 33.5991 356.748 33.5991C356.201 33.5991 355.758 34.045 355.758 34.5954V73.4045C355.758 73.9549 356.201 74.4009 356.748 74.4009V74.4024Z" fill="url(#paint19_linear_6_61)"/>
<path d="M364.852 80.4656C365.399 80.4656 365.842 80.0197 365.842 79.4693V28.5307C365.842 27.9803 365.399 27.5344 364.852 27.5344C364.305 27.5344 363.862 27.9803 363.862 28.5307V79.4678C363.862 80.0182 364.305 80.4642 364.852 80.4642V80.4656Z" fill="url(#paint20_linear_6_61)"/>
<path d="M372.956 93.402C373.503 93.402 373.946 92.956 373.946 92.4057V15.5944C373.946 15.044 373.503 14.598 372.956 14.598C372.409 14.598 371.966 15.044 371.966 15.5944V92.4057C371.966 92.956 372.409 93.402 372.956 93.402Z" fill="url(#paint21_linear_6_61)"/>
<path d="M381.06 94.2104C381.607 94.2104 382.05 93.7645 382.05 93.2141V14.7859C382.05 14.2355 381.607 13.7896 381.06 13.7896C380.513 13.7896 380.069 14.2355 380.069 14.7859V93.2141C380.069 93.7645 380.513 94.2104 381.06 94.2104Z" fill="url(#paint22_linear_6_61)"/>
<path d="M389.163 73.1883C389.71 73.1883 390.154 72.7423 390.154 72.1919V35.8081C390.154 35.2577 389.71 34.8117 389.163 34.8117C388.616 34.8117 388.173 35.2577 388.173 35.8081V72.1919C388.173 72.7423 388.616 73.1883 389.163 73.1883Z" fill="url(#paint23_linear_6_61)"/>
<path d="M397.267 68.7419C397.814 68.7419 398.257 68.2959 398.257 67.7456V40.256C398.257 39.7056 397.814 39.2596 397.267 39.2596C396.72 39.2596 396.277 39.7056 396.277 40.256V67.7456C396.277 68.2959 396.72 68.7419 397.267 68.7419Z" fill="url(#paint24_linear_6_61)"/>
<path d="M405.371 60.6561C405.918 60.6561 406.361 60.2101 406.361 59.6598V48.3402C406.361 47.7898 405.918 47.3439 405.371 47.3439C404.824 47.3439 404.381 47.7898 404.381 48.3402V59.6598C404.381 60.2101 404.824 60.6561 405.371 60.6561Z" fill="url(#paint25_linear_6_61)"/>
</g>
<defs>
<linearGradient id="paint0_linear_6_61" x1="106.711" y1="138.275" x2="106.711" y2="0" gradientUnits="userSpaceOnUse">
<stop stop-color="#A80017"/>
<stop offset="1" stop-color="#E4562E"/>
</linearGradient>
<linearGradient id="paint1_linear_6_61" x1="98.6074" y1="130.244" x2="98.6074" y2="5.1459" gradientUnits="userSpaceOnUse">
<stop stop-color="#A80017"/>
<stop offset="1" stop-color="#E4562E"/>
</linearGradient>
<linearGradient id="paint2_linear_6_61" x1="90.5036" y1="100.529" x2="90.5036" y2="24.1858" gradientUnits="userSpaceOnUse">
<stop stop-color="#A80017"/>
<stop offset="1" stop-color="#E4562E"/>
</linearGradient>
<linearGradient id="paint3_linear_6_61" x1="82.3998" y1="83.664" x2="82.3998" y2="34.9937" gradientUnits="userSpaceOnUse">
<stop stop-color="#A80017"/>
<stop offset="1" stop-color="#E4562E"/>
</linearGradient>
<linearGradient id="paint4_linear_6_61" x1="74.2945" y1="69.2083" x2="74.2945" y2="44.2563" gradientUnits="userSpaceOnUse">
<stop stop-color="#A80017"/>
<stop offset="1" stop-color="#E4562E"/>
</linearGradient>
<linearGradient id="paint5_linear_6_61" x1="66.1908" y1="62.4953" x2="66.1908" y2="48.5565" gradientUnits="userSpaceOnUse">
<stop stop-color="#A80017"/>
<stop offset="1" stop-color="#E4562E"/>
</linearGradient>
<linearGradient id="paint6_linear_6_61" x1="58.087" y1="85.8405" x2="58.087" y2="33.5991" gradientUnits="userSpaceOnUse">
<stop stop-color="#A80017"/>
<stop offset="1" stop-color="#E4562E"/>
</linearGradient>
<linearGradient id="paint7_linear_6_61" x1="49.9832" y1="95.3035" x2="49.9832" y2="27.5344" gradientUnits="userSpaceOnUse">
<stop stop-color="#A80017"/>
<stop offset="1" stop-color="#E4562E"/>
</linearGradient>
<linearGradient id="paint8_linear_6_61" x1="41.8794" y1="115.493" x2="41.8794" y2="14.598" gradientUnits="userSpaceOnUse">
<stop stop-color="#A80017"/>
<stop offset="1" stop-color="#E4562E"/>
</linearGradient>
<linearGradient id="paint9_linear_6_61" x1="33.7757" y1="116.754" x2="33.7757" y2="13.7896" gradientUnits="userSpaceOnUse">
<stop stop-color="#A80017"/>
<stop offset="1" stop-color="#E4562E"/>
</linearGradient>
<linearGradient id="paint10_linear_6_61" x1="25.6704" y1="83.9461" x2="25.6704" y2="34.8117" gradientUnits="userSpaceOnUse">
<stop stop-color="#A80017"/>
<stop offset="1" stop-color="#E4562E"/>
</linearGradient>
<linearGradient id="paint11_linear_6_61" x1="17.5666" y1="77.0065" x2="17.5666" y2="39.2596" gradientUnits="userSpaceOnUse">
<stop stop-color="#A80017"/>
<stop offset="1" stop-color="#E4562E"/>
</linearGradient>
<linearGradient id="paint12_linear_6_61" x1="9.46282" y1="64.3878" x2="9.46282" y2="47.3439" gradientUnits="userSpaceOnUse">
<stop stop-color="#A80017"/>
<stop offset="1" stop-color="#E4562E"/>
</linearGradient>
<linearGradient id="paint13_linear_6_61" x1="306.983" y1="138.275" x2="306.983" y2="0" gradientUnits="userSpaceOnUse">
<stop stop-color="#A80017"/>
<stop offset="1" stop-color="#E4562E"/>
</linearGradient>
<linearGradient id="paint14_linear_6_61" x1="315.087" y1="130.244" x2="315.087" y2="5.1459" gradientUnits="userSpaceOnUse">
<stop stop-color="#A80017"/>
<stop offset="1" stop-color="#E4562E"/>
</linearGradient>
<linearGradient id="paint15_linear_6_61" x1="323.191" y1="100.529" x2="323.191" y2="24.1858" gradientUnits="userSpaceOnUse">
<stop stop-color="#A80017"/>
<stop offset="1" stop-color="#E4562E"/>
</linearGradient>
<linearGradient id="paint16_linear_6_61" x1="331.294" y1="83.664" x2="331.294" y2="34.9937" gradientUnits="userSpaceOnUse">
<stop stop-color="#A80017"/>
<stop offset="1" stop-color="#E4562E"/>
</linearGradient>
<linearGradient id="paint17_linear_6_61" x1="339.398" y1="69.2083" x2="339.398" y2="44.2563" gradientUnits="userSpaceOnUse">
<stop stop-color="#A80017"/>
<stop offset="1" stop-color="#E4562E"/>
</linearGradient>
<linearGradient id="paint18_linear_6_61" x1="347.502" y1="62.4953" x2="347.502" y2="48.5565" gradientUnits="userSpaceOnUse">
<stop stop-color="#A80017"/>
<stop offset="1" stop-color="#E4562E"/>
</linearGradient>
<linearGradient id="paint19_linear_6_61" x1="355.607" y1="85.8405" x2="355.607" y2="33.5991" gradientUnits="userSpaceOnUse">
<stop stop-color="#A80017"/>
<stop offset="1" stop-color="#E4562E"/>
</linearGradient>
<linearGradient id="paint20_linear_6_61" x1="363.711" y1="95.3035" x2="363.711" y2="27.5344" gradientUnits="userSpaceOnUse">
<stop stop-color="#A80017"/>
<stop offset="1" stop-color="#E4562E"/>
</linearGradient>
<linearGradient id="paint21_linear_6_61" x1="371.815" y1="115.493" x2="371.815" y2="14.598" gradientUnits="userSpaceOnUse">
<stop stop-color="#A80017"/>
<stop offset="1" stop-color="#E4562E"/>
</linearGradient>
<linearGradient id="paint22_linear_6_61" x1="379.919" y1="116.754" x2="379.919" y2="13.7896" gradientUnits="userSpaceOnUse">
<stop stop-color="#A80017"/>
<stop offset="1" stop-color="#E4562E"/>
</linearGradient>
<linearGradient id="paint23_linear_6_61" x1="388.022" y1="83.9461" x2="388.022" y2="34.8117" gradientUnits="userSpaceOnUse">
<stop stop-color="#A80017"/>
<stop offset="1" stop-color="#E4562E"/>
</linearGradient>
<linearGradient id="paint24_linear_6_61" x1="396.126" y1="77.0065" x2="396.126" y2="39.2596" gradientUnits="userSpaceOnUse">
<stop stop-color="#A80017"/>
<stop offset="1" stop-color="#E4562E"/>
</linearGradient>
<linearGradient id="paint25_linear_6_61" x1="404.23" y1="64.3878" x2="404.23" y2="47.3439" gradientUnits="userSpaceOnUse">
<stop stop-color="#A80017"/>
<stop offset="1" stop-color="#E4562E"/>
</linearGradient>
</defs>
</svg>
