<svg width="144" height="99" viewBox="0 0 144 99" fill="none" xmlns="http://www.w3.org/2000/svg">
<g filter="url(#filter0_i_17_65)">
<rect width="143.333" height="99" transform="translate(0.666748)" fill="url(#paint0_linear_17_65)"/>
<path fill-rule="evenodd" clip-rule="evenodd" d="M72.3334 35.8334C74.6349 35.8334 76.5001 37.6986 76.5001 40C76.5001 42.3015 74.6349 44.1667 72.3334 44.1667C70.0319 44.1667 68.1667 42.3015 68.1667 40C68.1667 37.6986 70.0319 35.8334 72.3334 35.8334Z" stroke="white" stroke-width="2" stroke-linecap="round" stroke-linejoin="round"/>
<path fill-rule="evenodd" clip-rule="evenodd" d="M85.9468 32.0838V32.0838C84.8075 30.0967 82.2855 29.4168 80.3143 30.5642C78.5997 31.5602 76.4569 30.314 76.4569 28.3203C76.4569 26.027 74.6099 24.1667 72.333 24.1667V24.1667C70.0562 24.1667 68.2092 26.027 68.2092 28.3203C68.2092 30.314 66.0664 31.5602 64.3534 30.5642C62.3806 29.4168 59.8585 30.0967 58.7193 32.0838C57.5817 34.0709 58.2567 36.6111 60.2296 37.7569C61.9425 38.7546 61.9425 41.2454 60.2296 42.2431C58.2567 43.3906 57.5817 45.9308 58.7193 47.9163C59.8585 49.9034 62.3806 50.5833 64.3518 49.4375H64.3534C66.0664 48.4398 68.2092 49.6861 68.2092 51.6797V51.6797C68.2092 53.973 70.0562 55.8334 72.333 55.8334V55.8334C74.6099 55.8334 76.4569 53.973 76.4569 51.6797V51.6797C76.4569 49.6861 78.5997 48.4398 80.3143 49.4375C82.2855 50.5833 84.8075 49.9034 85.9468 47.9163C87.086 45.9308 86.4093 43.3906 84.4381 42.2431H84.4365C82.7235 41.2454 82.7235 38.7546 84.4381 37.7569C86.4093 36.6111 87.086 34.0709 85.9468 32.0838Z" stroke="white" stroke-width="2" stroke-linecap="round" stroke-linejoin="round"/>
<path d="M55.2157 76.07C54.7557 76.07 54.3424 75.99 53.9757 75.83C53.6157 75.6633 53.3324 75.4367 53.1257 75.15C52.9191 74.8567 52.8124 74.52 52.8057 74.14H53.7757C53.8091 74.4667 53.9424 74.7433 54.1757 74.97C54.4157 75.19 54.7624 75.3 55.2157 75.3C55.6491 75.3 55.9891 75.1933 56.2357 74.98C56.4891 74.76 56.6157 74.48 56.6157 74.14C56.6157 73.8733 56.5424 73.6567 56.3957 73.49C56.2491 73.3233 56.0657 73.1967 55.8457 73.11C55.6257 73.0233 55.3291 72.93 54.9557 72.83C54.4957 72.71 54.1257 72.59 53.8457 72.47C53.5724 72.35 53.3357 72.1633 53.1357 71.91C52.9424 71.65 52.8457 71.3033 52.8457 70.87C52.8457 70.49 52.9424 70.1533 53.1357 69.86C53.3291 69.5667 53.5991 69.34 53.9457 69.18C54.2991 69.02 54.7024 68.94 55.1557 68.94C55.8091 68.94 56.3424 69.1033 56.7557 69.43C57.1757 69.7567 57.4124 70.19 57.4657 70.73H56.4657C56.4324 70.4633 56.2924 70.23 56.0457 70.03C55.7991 69.8233 55.4724 69.72 55.0657 69.72C54.6857 69.72 54.3757 69.82 54.1357 70.02C53.8957 70.2133 53.7757 70.4867 53.7757 70.84C53.7757 71.0933 53.8457 71.3 53.9857 71.46C54.1324 71.62 54.3091 71.7433 54.5157 71.83C54.7291 71.91 55.0257 72.0033 55.4057 72.11C55.8657 72.2367 56.2357 72.3633 56.5157 72.49C56.7957 72.61 57.0357 72.8 57.2357 73.06C57.4357 73.3133 57.5357 73.66 57.5357 74.1C57.5357 74.44 57.4457 74.76 57.2657 75.06C57.0857 75.36 56.8191 75.6033 56.4657 75.79C56.1124 75.9767 55.6957 76.07 55.2157 76.07ZM63.8749 73.05C63.8749 73.2233 63.8649 73.4067 63.8449 73.6H59.4649C59.4982 74.14 59.6815 74.5633 60.0149 74.87C60.3549 75.17 60.7649 75.32 61.2449 75.32C61.6382 75.32 61.9649 75.23 62.2249 75.05C62.4915 74.8633 62.6782 74.6167 62.7849 74.31H63.7649C63.6182 74.8367 63.3249 75.2667 62.8849 75.6C62.4449 75.9267 61.8982 76.09 61.2449 76.09C60.7249 76.09 60.2582 75.9733 59.8449 75.74C59.4382 75.5067 59.1182 75.1767 58.8849 74.75C58.6515 74.3167 58.5349 73.8167 58.5349 73.25C58.5349 72.6833 58.6482 72.1867 58.8749 71.76C59.1015 71.3333 59.4182 71.0067 59.8249 70.78C60.2382 70.5467 60.7115 70.43 61.2449 70.43C61.7649 70.43 62.2249 70.5433 62.6249 70.77C63.0249 70.9967 63.3315 71.31 63.5449 71.71C63.7649 72.1033 63.8749 72.55 63.8749 73.05ZM62.9349 72.86C62.9349 72.5133 62.8582 72.2167 62.7049 71.97C62.5515 71.7167 62.3415 71.5267 62.0749 71.4C61.8149 71.2667 61.5249 71.2 61.2049 71.2C60.7449 71.2 60.3515 71.3467 60.0249 71.64C59.7049 71.9333 59.5215 72.34 59.4749 72.86H62.9349ZM66.186 71.27V74.5C66.186 74.7667 66.2427 74.9567 66.356 75.07C66.4694 75.1767 66.666 75.23 66.946 75.23H67.616V76H66.796C66.2894 76 65.9094 75.8833 65.656 75.65C65.4027 75.4167 65.276 75.0333 65.276 74.5V71.27H64.566V70.52H65.276V69.14H66.186V70.52H67.616V71.27H66.186ZM69.8286 71.27V74.5C69.8286 74.7667 69.8853 74.9567 69.9986 75.07C70.1119 75.1767 70.3086 75.23 70.5886 75.23H71.2586V76H70.4386C69.9319 76 69.5519 75.8833 69.2986 75.65C69.0453 75.4167 68.9186 75.0333 68.9186 74.5V71.27H68.2086V70.52H68.9186V69.14H69.8286V70.52H71.2586V71.27H69.8286ZM72.8312 69.63C72.6579 69.63 72.5112 69.57 72.3912 69.45C72.2712 69.33 72.2112 69.1833 72.2112 69.01C72.2112 68.8367 72.2712 68.69 72.3912 68.57C72.5112 68.45 72.6579 68.39 72.8312 68.39C72.9979 68.39 73.1379 68.45 73.2512 68.57C73.3712 68.69 73.4312 68.8367 73.4312 69.01C73.4312 69.1833 73.3712 69.33 73.2512 69.45C73.1379 69.57 72.9979 69.63 72.8312 69.63ZM73.2712 70.52V76H72.3612V70.52H73.2712ZM77.4921 70.42C78.1588 70.42 78.6988 70.6233 79.1121 71.03C79.5255 71.43 79.7321 72.01 79.7321 72.77V76H78.8321V72.9C78.8321 72.3533 78.6955 71.9367 78.4221 71.65C78.1488 71.3567 77.7755 71.21 77.3021 71.21C76.8221 71.21 76.4388 71.36 76.1521 71.66C75.8721 71.96 75.7321 72.3967 75.7321 72.97V76H74.8221V70.52H75.7321V71.3C75.9121 71.02 76.1555 70.8033 76.4621 70.65C76.7755 70.4967 77.1188 70.42 77.4921 70.42ZM83.4786 70.43C83.9519 70.43 84.3653 70.5333 84.7186 70.74C85.0786 70.9467 85.3453 71.2067 85.5186 71.52V70.52H86.4386V76.12C86.4386 76.62 86.3319 77.0633 86.1186 77.45C85.9053 77.8433 85.5986 78.15 85.1986 78.37C84.8053 78.59 84.3453 78.7 83.8186 78.7C83.0986 78.7 82.4986 78.53 82.0186 78.19C81.5386 77.85 81.2553 77.3867 81.1686 76.8H82.0686C82.1686 77.1333 82.3753 77.4 82.6886 77.6C83.0019 77.8067 83.3786 77.91 83.8186 77.91C84.3186 77.91 84.7253 77.7533 85.0386 77.44C85.3586 77.1267 85.5186 76.6867 85.5186 76.12V74.97C85.3386 75.29 85.0719 75.5567 84.7186 75.77C84.3653 75.9833 83.9519 76.09 83.4786 76.09C82.9919 76.09 82.5486 75.97 82.1486 75.73C81.7553 75.49 81.4453 75.1533 81.2186 74.72C80.9919 74.2867 80.8786 73.7933 80.8786 73.24C80.8786 72.68 80.9919 72.19 81.2186 71.77C81.4453 71.3433 81.7553 71.0133 82.1486 70.78C82.5486 70.5467 82.9919 70.43 83.4786 70.43ZM85.5186 73.25C85.5186 72.8367 85.4353 72.4767 85.2686 72.17C85.1019 71.8633 84.8753 71.63 84.5886 71.47C84.3086 71.3033 83.9986 71.22 83.6586 71.22C83.3186 71.22 83.0086 71.3 82.7286 71.46C82.4486 71.62 82.2253 71.8533 82.0586 72.16C81.8919 72.4667 81.8086 72.8267 81.8086 73.24C81.8086 73.66 81.8919 74.0267 82.0586 74.34C82.2253 74.6467 82.4486 74.8833 82.7286 75.05C83.0086 75.21 83.3186 75.29 83.6586 75.29C83.9986 75.29 84.3086 75.21 84.5886 75.05C84.8753 74.8833 85.1019 74.6467 85.2686 74.34C85.4353 74.0267 85.5186 73.6633 85.5186 73.25ZM89.9164 76.09C89.4964 76.09 89.1198 76.02 88.7864 75.88C88.4531 75.7333 88.1898 75.5333 87.9964 75.28C87.8031 75.02 87.6964 74.7233 87.6764 74.39H88.6164C88.6431 74.6633 88.7698 74.8867 88.9964 75.06C89.2298 75.2333 89.5331 75.32 89.9064 75.32C90.2531 75.32 90.5264 75.2433 90.7264 75.09C90.9264 74.9367 91.0264 74.7433 91.0264 74.51C91.0264 74.27 90.9198 74.0933 90.7064 73.98C90.4931 73.86 90.1631 73.7433 89.7164 73.63C89.3098 73.5233 88.9764 73.4167 88.7164 73.31C88.4631 73.1967 88.2431 73.0333 88.0564 72.82C87.8764 72.6 87.7864 72.3133 87.7864 71.96C87.7864 71.68 87.8698 71.4233 88.0364 71.19C88.2031 70.9567 88.4398 70.7733 88.7464 70.64C89.0531 70.5 89.4031 70.43 89.7964 70.43C90.4031 70.43 90.8931 70.5833 91.2664 70.89C91.6398 71.1967 91.8398 71.6167 91.8664 72.15H90.9564C90.9364 71.8633 90.8198 71.6333 90.6064 71.46C90.3998 71.2867 90.1198 71.2 89.7664 71.2C89.4398 71.2 89.1798 71.27 88.9864 71.41C88.7931 71.55 88.6964 71.7333 88.6964 71.96C88.6964 72.14 88.7531 72.29 88.8664 72.41C88.9864 72.5233 89.1331 72.6167 89.3064 72.69C89.4864 72.7567 89.7331 72.8333 90.0464 72.92C90.4398 73.0267 90.7598 73.1333 91.0064 73.24C91.2531 73.34 91.4631 73.4933 91.6364 73.7C91.8164 73.9067 91.9098 74.1767 91.9164 74.51C91.9164 74.81 91.8331 75.08 91.6664 75.32C91.4998 75.56 91.2631 75.75 90.9564 75.89C90.6564 76.0233 90.3098 76.09 89.9164 76.09Z" fill="white"/>
</g>
<defs>
<filter id="filter0_i_17_65" x="0.666748" y="0" width="143.333" height="103" filterUnits="userSpaceOnUse" color-interpolation-filters="sRGB">
<feFlood flood-opacity="0" result="BackgroundImageFix"/>
<feBlend mode="normal" in="SourceGraphic" in2="BackgroundImageFix" result="shape"/>
<feColorMatrix in="SourceAlpha" type="matrix" values="0 0 0 0 0 0 0 0 0 0 0 0 0 0 0 0 0 0 127 0" result="hardAlpha"/>
<feOffset dy="4"/>
<feGaussianBlur stdDeviation="7"/>
<feComposite in2="hardAlpha" operator="arithmetic" k2="-1" k3="1"/>
<feColorMatrix type="matrix" values="0 0 0 0 0.580392 0 0 0 0 0 0 0 0 0 0.0117647 0 0 0 1 0"/>
<feBlend mode="normal" in2="shape" result="effect1_innerShadow_17_65"/>
</filter>
<linearGradient id="paint0_linear_17_65" x1="-10.9206" y1="126.752" x2="-10.9206" y2="0" gradientUnits="userSpaceOnUse">
<stop stop-color="#A80017"/>
<stop offset="1" stop-color="#E4562E"/>
</linearGradient>
</defs>
</svg>
