<svg width="144" height="99" viewBox="0 0 144 99" fill="none" xmlns="http://www.w3.org/2000/svg">
<mask id="path-1-inside-1_3_160" fill="white">
<path d="M0.333313 0H143.667V99H0.333313V0Z"/>
</mask>
<path d="M0.333313 0H143.667V99H0.333313V0Z" fill="white"/>
<path d="M142.667 0V99H144.667V0H142.667ZM1.33331 99V0H-0.666687V99H1.33331Z" fill="#333333" fill-opacity="0.2" mask="url(#path-1-inside-1_3_160)"/>
<path d="M63.0062 43.054C63.0062 48.0114 67.0247 52.0299 71.9837 52.0299C76.9411 52.0299 80.9596 48.0114 80.9596 43.054" stroke="url(#paint0_linear_3_160)" stroke-width="2" stroke-linecap="round" stroke-linejoin="round"/>
<path d="M80.9594 37.8995V34.3307C80.9594 29.3733 76.9409 25.3548 71.9835 25.3548C67.0245 25.3548 63.006 29.3733 63.006 34.3307V37.8995" stroke="url(#paint1_linear_3_160)" stroke-width="2" stroke-linecap="round" stroke-linejoin="round"/>
<path d="M71.9837 55.4377V52.0303" stroke="url(#paint2_linear_3_160)" stroke-width="2" stroke-linecap="round" stroke-linejoin="round"/>
<path d="M60.6869 43.0539H83.2795" stroke="url(#paint3_linear_3_160)" stroke-width="2" stroke-linecap="round" stroke-linejoin="round"/>
<path d="M69.4958 37.4195H74.4706" stroke="url(#paint4_linear_3_160)" stroke-width="2" stroke-linecap="round" stroke-linejoin="round"/>
<path d="M72.8185 32.8033H71.1465" stroke="url(#paint5_linear_3_160)" stroke-width="1.5" stroke-linecap="round" stroke-linejoin="round"/>
<path d="M40.6638 69.03L38.0338 76H36.9838L34.3538 69.03H35.3238L37.5138 75.04L39.7038 69.03H40.6638ZM44.0516 76.09C43.5383 76.09 43.0716 75.9733 42.6516 75.74C42.2383 75.5067 41.9116 75.1767 41.6716 74.75C41.4383 74.3167 41.3216 73.8167 41.3216 73.25C41.3216 72.69 41.4416 72.1967 41.6816 71.77C41.9283 71.3367 42.2616 71.0067 42.6816 70.78C43.1016 70.5467 43.5716 70.43 44.0916 70.43C44.6116 70.43 45.0816 70.5467 45.5016 70.78C45.9216 71.0067 46.2516 71.3333 46.4916 71.76C46.7383 72.1867 46.8616 72.6833 46.8616 73.25C46.8616 73.8167 46.7349 74.3167 46.4816 74.75C46.2349 75.1767 45.8983 75.5067 45.4716 75.74C45.0449 75.9733 44.5716 76.09 44.0516 76.09ZM44.0516 75.29C44.3783 75.29 44.6849 75.2133 44.9716 75.06C45.2583 74.9067 45.4883 74.6767 45.6616 74.37C45.8416 74.0633 45.9316 73.69 45.9316 73.25C45.9316 72.81 45.8449 72.4367 45.6716 72.13C45.4983 71.8233 45.2716 71.5967 44.9916 71.45C44.7116 71.2967 44.4083 71.22 44.0816 71.22C43.7483 71.22 43.4416 71.2967 43.1616 71.45C42.8883 71.5967 42.6683 71.8233 42.5016 72.13C42.3349 72.4367 42.2516 72.81 42.2516 73.25C42.2516 73.6967 42.3316 74.0733 42.4916 74.38C42.6583 74.6867 42.8783 74.9167 43.1516 75.07C43.4249 75.2167 43.7249 75.29 44.0516 75.29ZM48.5281 69.63C48.3548 69.63 48.2081 69.57 48.0881 69.45C47.9681 69.33 47.9081 69.1833 47.9081 69.01C47.9081 68.8367 47.9681 68.69 48.0881 68.57C48.2081 68.45 48.3548 68.39 48.5281 68.39C48.6948 68.39 48.8348 68.45 48.9481 68.57C49.0681 68.69 49.1281 68.8367 49.1281 69.01C49.1281 69.1833 49.0681 69.33 48.9481 69.45C48.8348 69.57 48.6948 69.63 48.5281 69.63ZM48.9681 70.52V76H48.0581V70.52H48.9681ZM50.179 73.25C50.179 72.6833 50.2924 72.19 50.519 71.77C50.7457 71.3433 51.059 71.0133 51.459 70.78C51.8657 70.5467 52.329 70.43 52.849 70.43C53.5224 70.43 54.0757 70.5933 54.509 70.92C54.949 71.2467 55.239 71.7 55.379 72.28H54.399C54.3057 71.9467 54.1224 71.6833 53.849 71.49C53.5824 71.2967 53.249 71.2 52.849 71.2C52.329 71.2 51.909 71.38 51.589 71.74C51.269 72.0933 51.109 72.5967 51.109 73.25C51.109 73.91 51.269 74.42 51.589 74.78C51.909 75.14 52.329 75.32 52.849 75.32C53.249 75.32 53.5824 75.2267 53.849 75.04C54.1157 74.8533 54.299 74.5867 54.399 74.24H55.379C55.2324 74.8 54.939 75.25 54.499 75.59C54.059 75.9233 53.509 76.09 52.849 76.09C52.329 76.09 51.8657 75.9733 51.459 75.74C51.059 75.5067 50.7457 75.1767 50.519 74.75C50.2924 74.3233 50.179 73.8233 50.179 73.25ZM61.5932 73.05C61.5932 73.2233 61.5832 73.4067 61.5632 73.6H57.1832C57.2166 74.14 57.3999 74.5633 57.7332 74.87C58.0732 75.17 58.4832 75.32 58.9632 75.32C59.3566 75.32 59.6832 75.23 59.9432 75.05C60.2099 74.8633 60.3966 74.6167 60.5032 74.31H61.4832C61.3366 74.8367 61.0432 75.2667 60.6032 75.6C60.1632 75.9267 59.6166 76.09 58.9632 76.09C58.4432 76.09 57.9766 75.9733 57.5632 75.74C57.1566 75.5067 56.8366 75.1767 56.6032 74.75C56.3699 74.3167 56.2532 73.8167 56.2532 73.25C56.2532 72.6833 56.3666 72.1867 56.5932 71.76C56.8199 71.3333 57.1366 71.0067 57.5432 70.78C57.9566 70.5467 58.4299 70.43 58.9632 70.43C59.4832 70.43 59.9432 70.5433 60.3432 70.77C60.7432 70.9967 61.0499 71.31 61.2632 71.71C61.4832 72.1033 61.5932 72.55 61.5932 73.05ZM60.6532 72.86C60.6532 72.5133 60.5766 72.2167 60.4232 71.97C60.2699 71.7167 60.0599 71.5267 59.7932 71.4C59.5332 71.2667 59.2432 71.2 58.9232 71.2C58.4632 71.2 58.0699 71.3467 57.7432 71.64C57.4232 71.9333 57.2399 72.34 57.1932 72.86H60.6532ZM69.1304 76L67.4704 73.15H66.3704V76H65.4604V69.03H67.7104C68.2371 69.03 68.6804 69.12 69.0404 69.3C69.4071 69.48 69.6804 69.7233 69.8604 70.03C70.0404 70.3367 70.1304 70.6867 70.1304 71.08C70.1304 71.56 69.9904 71.9833 69.7104 72.35C69.4371 72.7167 69.0238 72.96 68.4704 73.08L70.2204 76H69.1304ZM66.3704 72.42H67.7104C68.2038 72.42 68.5738 72.3 68.8204 72.06C69.0671 71.8133 69.1904 71.4867 69.1904 71.08C69.1904 70.6667 69.0671 70.3467 68.8204 70.12C68.5804 69.8933 68.2104 69.78 67.7104 69.78H66.3704V72.42ZM76.5444 73.05C76.5444 73.2233 76.5344 73.4067 76.5144 73.6H72.1344C72.1677 74.14 72.3511 74.5633 72.6844 74.87C73.0244 75.17 73.4344 75.32 73.9144 75.32C74.3077 75.32 74.6344 75.23 74.8944 75.05C75.1611 74.8633 75.3477 74.6167 75.4544 74.31H76.4344C76.2877 74.8367 75.9944 75.2667 75.5544 75.6C75.1144 75.9267 74.5677 76.09 73.9144 76.09C73.3944 76.09 72.9277 75.9733 72.5144 75.74C72.1077 75.5067 71.7877 75.1767 71.5544 74.75C71.3211 74.3167 71.2044 73.8167 71.2044 73.25C71.2044 72.6833 71.3177 72.1867 71.5444 71.76C71.7711 71.3333 72.0877 71.0067 72.4944 70.78C72.9077 70.5467 73.3811 70.43 73.9144 70.43C74.4344 70.43 74.8944 70.5433 75.2944 70.77C75.6944 70.9967 76.0011 71.31 76.2144 71.71C76.4344 72.1033 76.5444 72.55 76.5444 73.05ZM75.6044 72.86C75.6044 72.5133 75.5277 72.2167 75.3744 71.97C75.2211 71.7167 75.0111 71.5267 74.7444 71.4C74.4844 71.2667 74.1944 71.2 73.8744 71.2C73.4144 71.2 73.0211 71.3467 72.6944 71.64C72.3744 71.9333 72.1911 72.34 72.1444 72.86H75.6044ZM77.4056 73.25C77.4056 72.6833 77.5189 72.19 77.7456 71.77C77.9723 71.3433 78.2856 71.0133 78.6856 70.78C79.0923 70.5467 79.5556 70.43 80.0756 70.43C80.7489 70.43 81.3023 70.5933 81.7356 70.92C82.1756 71.2467 82.4656 71.7 82.6056 72.28H81.6256C81.5323 71.9467 81.3489 71.6833 81.0756 71.49C80.8089 71.2967 80.4756 71.2 80.0756 71.2C79.5556 71.2 79.1356 71.38 78.8156 71.74C78.4956 72.0933 78.3356 72.5967 78.3356 73.25C78.3356 73.91 78.4956 74.42 78.8156 74.78C79.1356 75.14 79.5556 75.32 80.0756 75.32C80.4756 75.32 80.8089 75.2267 81.0756 75.04C81.3423 74.8533 81.5256 74.5867 81.6256 74.24H82.6056C82.4589 74.8 82.1656 75.25 81.7256 75.59C81.2856 75.9233 80.7356 76.09 80.0756 76.09C79.5556 76.09 79.0923 75.9733 78.6856 75.74C78.2856 75.5067 77.9723 75.1767 77.7456 74.75C77.5189 74.3233 77.4056 73.8233 77.4056 73.25ZM86.2098 76.09C85.6965 76.09 85.2298 75.9733 84.8098 75.74C84.3965 75.5067 84.0698 75.1767 83.8298 74.75C83.5965 74.3167 83.4798 73.8167 83.4798 73.25C83.4798 72.69 83.5998 72.1967 83.8398 71.77C84.0865 71.3367 84.4198 71.0067 84.8398 70.78C85.2598 70.5467 85.7298 70.43 86.2498 70.43C86.7698 70.43 87.2398 70.5467 87.6598 70.78C88.0798 71.0067 88.4098 71.3333 88.6498 71.76C88.8965 72.1867 89.0198 72.6833 89.0198 73.25C89.0198 73.8167 88.8931 74.3167 88.6398 74.75C88.3931 75.1767 88.0565 75.5067 87.6298 75.74C87.2031 75.9733 86.7298 76.09 86.2098 76.09ZM86.2098 75.29C86.5365 75.29 86.8431 75.2133 87.1298 75.06C87.4165 74.9067 87.6465 74.6767 87.8198 74.37C87.9998 74.0633 88.0898 73.69 88.0898 73.25C88.0898 72.81 88.0031 72.4367 87.8298 72.13C87.6565 71.8233 87.4298 71.5967 87.1498 71.45C86.8698 71.2967 86.5665 71.22 86.2398 71.22C85.9065 71.22 85.5998 71.2967 85.3198 71.45C85.0465 71.5967 84.8265 71.8233 84.6598 72.13C84.4931 72.4367 84.4098 72.81 84.4098 73.25C84.4098 73.6967 84.4898 74.0733 84.6498 74.38C84.8165 74.6867 85.0365 74.9167 85.3098 75.07C85.5831 75.2167 85.8831 75.29 86.2098 75.29ZM91.1263 71.41C91.2863 71.0967 91.513 70.8533 91.8063 70.68C92.1063 70.5067 92.4696 70.42 92.8963 70.42V71.36H92.6563C91.6363 71.36 91.1263 71.9133 91.1263 73.02V76H90.2163V70.52H91.1263V71.41ZM93.6068 73.24C93.6068 72.68 93.7201 72.19 93.9468 71.77C94.1734 71.3433 94.4834 71.0133 94.8768 70.78C95.2768 70.5467 95.7234 70.43 96.2168 70.43C96.6434 70.43 97.0401 70.53 97.4068 70.73C97.7734 70.9233 98.0534 71.18 98.2468 71.5V68.6H99.1668V76H98.2468V74.97C98.0668 75.2967 97.8001 75.5667 97.4468 75.78C97.0934 75.9867 96.6801 76.09 96.2068 76.09C95.7201 76.09 95.2768 75.97 94.8768 75.73C94.4834 75.49 94.1734 75.1533 93.9468 74.72C93.7201 74.2867 93.6068 73.7933 93.6068 73.24ZM98.2468 73.25C98.2468 72.8367 98.1634 72.4767 97.9968 72.17C97.8301 71.8633 97.6034 71.63 97.3168 71.47C97.0368 71.3033 96.7268 71.22 96.3868 71.22C96.0468 71.22 95.7368 71.3 95.4568 71.46C95.1768 71.62 94.9534 71.8533 94.7868 72.16C94.6201 72.4667 94.5368 72.8267 94.5368 73.24C94.5368 73.66 94.6201 74.0267 94.7868 74.34C94.9534 74.6467 95.1768 74.8833 95.4568 75.05C95.7368 75.21 96.0468 75.29 96.3868 75.29C96.7268 75.29 97.0368 75.21 97.3168 75.05C97.6034 74.8833 97.8301 74.6467 97.9968 74.34C98.1634 74.0267 98.2468 73.6633 98.2468 73.25ZM105.705 73.05C105.705 73.2233 105.695 73.4067 105.675 73.6H101.295C101.328 74.14 101.511 74.5633 101.845 74.87C102.185 75.17 102.595 75.32 103.075 75.32C103.468 75.32 103.795 75.23 104.055 75.05C104.321 74.8633 104.508 74.6167 104.615 74.31H105.595C105.448 74.8367 105.155 75.2667 104.715 75.6C104.275 75.9267 103.728 76.09 103.075 76.09C102.555 76.09 102.088 75.9733 101.675 75.74C101.268 75.5067 100.948 75.1767 100.715 74.75C100.481 74.3167 100.365 73.8167 100.365 73.25C100.365 72.6833 100.478 72.1867 100.705 71.76C100.931 71.3333 101.248 71.0067 101.655 70.78C102.068 70.5467 102.541 70.43 103.075 70.43C103.595 70.43 104.055 70.5433 104.455 70.77C104.855 70.9967 105.161 71.31 105.375 71.71C105.595 72.1033 105.705 72.55 105.705 73.05ZM104.765 72.86C104.765 72.5133 104.688 72.2167 104.535 71.97C104.381 71.7167 104.171 71.5267 103.905 71.4C103.645 71.2667 103.355 71.2 103.035 71.2C102.575 71.2 102.181 71.3467 101.855 71.64C101.535 71.9333 101.351 72.34 101.305 72.86H104.765ZM107.816 71.41C107.976 71.0967 108.202 70.8533 108.496 70.68C108.796 70.5067 109.159 70.42 109.586 70.42V71.36H109.346C108.326 71.36 107.816 71.9133 107.816 73.02V76H106.906V70.52H107.816V71.41Z" fill="url(#paint6_linear_3_160)"/>
<defs>
<linearGradient id="paint0_linear_3_160" x1="61.6383" y1="54.546" x2="61.6383" y2="43.054" gradientUnits="userSpaceOnUse">
<stop stop-color="#A80017"/>
<stop offset="1" stop-color="#E4562E"/>
</linearGradient>
<linearGradient id="paint1_linear_3_160" x1="61.6381" y1="41.4161" x2="61.6381" y2="25.3548" gradientUnits="userSpaceOnUse">
<stop stop-color="#A80017"/>
<stop offset="1" stop-color="#E4562E"/>
</linearGradient>
<linearGradient id="paint2_linear_3_160" x1="71.0714" y1="56.3928" x2="71.0714" y2="52.0303" gradientUnits="userSpaceOnUse">
<stop stop-color="#A80017"/>
<stop offset="1" stop-color="#E4562E"/>
</linearGradient>
<linearGradient id="paint3_linear_3_160" x1="58.9655" y1="44.2894" x2="58.9655" y2="42.2623" gradientUnits="userSpaceOnUse">
<stop stop-color="#A80017"/>
<stop offset="1" stop-color="#E4562E"/>
</linearGradient>
<linearGradient id="paint4_linear_3_160" x1="69.1168" y1="38.655" x2="69.1168" y2="36.6278" gradientUnits="userSpaceOnUse">
<stop stop-color="#A80017"/>
<stop offset="1" stop-color="#E4562E"/>
</linearGradient>
<linearGradient id="paint5_linear_3_160" x1="71.0192" y1="34.0388" x2="71.0192" y2="32.0116" gradientUnits="userSpaceOnUse">
<stop stop-color="#A80017"/>
<stop offset="1" stop-color="#E4562E"/>
</linearGradient>
<linearGradient id="paint6_linear_3_160" x1="25.9048" y1="82.9245" x2="25.9048" y2="65" gradientUnits="userSpaceOnUse">
<stop stop-color="#A80017"/>
<stop offset="1" stop-color="#E4562E"/>
</linearGradient>
</defs>
</svg>
